<svg width="27" height="18" viewBox="0 0 27 18" fill="none" xmlns="http://www.w3.org/2000/svg">
<path d="M24.7497 2.47052H16.8748V0.203857H24.7497V2.47052ZM26.6915 13.8039C26.1942 15.2738 24.4089 17.2039 20.9529 17.2039C17.4947 17.2039 14.6935 15.2443 14.6935 10.7722C14.6935 6.34086 17.3091 4.06286 20.8427 4.06286C24.3099 4.06286 26.4271 6.08246 26.8895 9.07899C26.9772 9.65246 27.0121 10.4254 26.9963 11.5043H17.9661C18.1123 15.1435 21.8844 15.2579 23.1275 13.8039H26.6915ZM18.0448 9.27052H23.6304C23.5122 7.51726 22.3524 6.75566 20.8438 6.75566C19.1945 6.75566 18.2822 7.62606 18.0448 9.27052ZM7.27417 17.1903H0V0.227657H7.82204C13.9825 0.319457 14.0995 6.39752 10.882 8.05446C14.7756 9.48246 14.9061 17.1903 7.27417 17.1903ZM3.37496 7.00386H7.40692C10.2284 7.00386 10.6761 3.60386 7.05592 3.60386H3.37496V7.00386ZM7.1898 10.4039H3.37496V13.822H7.13355C10.5704 13.822 10.36 10.4039 7.1898 10.4039Z" fill="#166FFA"/>
</svg>
