<svg width="58" height="15" viewBox="0 0 58 15" fill="none" xmlns="http://www.w3.org/2000/svg">
<path d="M17.6828 6.32341C18.3452 6.32341 18.8822 5.78626 18.8822 5.12375C18.8822 4.46112 18.3452 3.92409 17.6828 3.92409C17.0204 3.92409 16.4835 4.46112 16.4835 5.12375C16.4835 5.78626 17.0204 6.32341 17.6828 6.32341V6.32341ZM57.2639 10.4222C57.0814 10.2939 56.9406 10.2727 56.8237 10.5218C54.8094 14.8846 51.4149 12.7075 51.7521 12.8991C52.505 12.5547 54.4853 10.9665 54.186 8.7736C54.0042 7.43343 52.854 6.83897 51.6331 7.05182C49.5019 7.42337 48.7178 9.72209 49.117 11.7572C49.1868 12.1067 49.3116 12.395 49.4363 12.6773C47.0279 14.6358 46.0715 10.9241 45.963 10.4806C45.9587 10.4568 47.8226 8.90325 48.341 5.20118C48.8843 1.32118 47.6466 0.614701 46.3809 0.636743C44.0388 0.67755 43.4059 5.57104 44.2561 9.64941C44.1849 9.66795 43.8535 9.85152 43.321 9.87209C42.9378 8.66633 41.3005 7.60943 40.8719 8.0167C39.7994 9.03551 41.132 11.0273 42.0697 11.1836C41.5064 14.6528 37.9838 13.7936 38.6396 9.44719C39.7867 7.31701 40.6591 4.1496 40.5034 2.23746C40.4483 1.56048 39.9477 0.653473 38.8158 0.698462C36.6386 0.784596 36.4019 5.67944 36.6571 9.15352C36.6445 9.06795 36.5233 9.5756 35.6311 9.82801C35.42 8.65661 33.5339 7.4808 33.0899 8.04609C32.2587 9.10412 33.6992 10.9906 34.3815 11.1222C33.8182 14.5913 30.2957 13.7321 30.9515 9.3857C32.0986 7.25563 32.9709 4.08822 32.8152 2.17608C32.7601 1.49899 32.2596 0.591981 31.1276 0.636856C28.9504 0.723104 28.7137 5.61795 28.9689 9.09203C28.9561 9.0051 28.8321 9.52948 27.9035 9.77771C27.8724 8.25793 25.9794 7.56105 25.5247 8.04598C24.7142 8.91038 25.7103 10.6839 26.6318 11.1222C26.0685 14.5913 22.546 13.7321 23.2018 9.3857C24.3489 7.25563 25.2213 4.08822 25.0655 2.17608C25.0105 1.49899 24.5099 0.591981 23.3779 0.636856C21.2008 0.723104 21.0256 5.86403 21.2808 9.33799C20.5637 12.4105 18.1588 16.2474 18.4713 8.5612C18.5021 8.02202 18.5358 7.81731 18.267 7.61542C18.0656 7.45853 17.6076 7.53404 17.3572 7.54025C17.0529 7.55246 16.9766 7.7305 16.9093 7.99964C16.7527 8.69459 16.7245 9.36829 16.7021 10.2875C16.6874 10.7175 16.653 10.9181 16.4874 11.5045C16.322 12.0907 15.3785 13.1622 14.8619 12.983C14.1452 12.7366 14.3803 10.7134 14.5146 9.32341C14.6265 8.22492 14.2682 7.73163 13.3501 7.55224C12.8126 7.44022 12.4861 7.4574 11.9263 7.28095C11.397 7.1141 11.2773 6.11282 10.1482 6.44651C9.53072 6.62918 9.9277 7.93758 9.77929 8.90732C9.04963 13.6776 7.53143 13.8086 6.8271 11.4913C9.99926 3.7222 7.74473 0.659351 6.42502 0.659351C5.05049 0.659351 3.47928 1.60615 4.14462 7.66403C3.8211 7.56964 3.72163 7.51878 3.36749 7.51878C1.36458 7.51878 0 9.13792 0 11.1353C0 13.1326 1.3647 14.7519 3.3676 14.7519C4.54997 14.7519 5.38011 14.2142 6.00882 13.3823C6.41903 13.9698 6.91854 14.7609 7.832 14.7253C10.5547 14.6193 11.3465 9.03426 11.44 8.72273C11.7311 8.76761 12.0065 8.8525 12.2753 8.89738C12.7231 8.96463 12.7557 9.14188 12.7455 9.59233C12.6268 13.3908 13.3277 14.7208 14.9177 14.7208C15.8036 14.7208 16.5932 13.8504 17.1371 13.2281C17.5433 14.0666 18.1907 14.6952 19.0592 14.7207C21.1636 14.773 21.9693 11.4189 21.8958 11.8603C21.8382 12.2066 22.5786 14.7018 24.745 14.7109C27.4287 14.7222 27.9275 11.771 27.987 11.2767C27.9944 11.1784 27.9977 11.1885 27.987 11.2767L27.9849 11.3066C28.8369 11.1482 29.2765 10.6914 29.2765 10.6914C29.2765 10.6914 29.9606 14.7568 32.4946 14.711C35.1261 14.6633 35.6224 11.9956 35.6875 11.4754C35.6961 11.352 35.7012 11.3664 35.6875 11.4754C35.6871 11.4805 35.6868 11.4856 35.6865 11.4907C36.6985 11.1225 36.9647 10.753 36.9647 10.753C36.9647 10.753 37.5084 14.7375 40.1829 14.7724C42.5661 14.8036 43.4494 12.363 43.4546 11.3415C43.8566 11.3458 44.6001 11.103 44.5827 11.0892C44.5827 11.0892 45.4557 14.573 47.8936 14.7519C49.0382 14.8359 49.8968 14.1078 50.3863 13.7757C51.5365 14.7073 55.3668 15.8971 57.7853 11.7967C58.1267 11.2082 57.3927 10.513 57.2639 10.4222V10.4222ZM3.27095 13.3993C2.10238 13.3993 1.35305 12.3188 1.35305 11.1537C1.35305 9.98875 2.04088 8.90823 3.20946 8.90823C3.73531 8.90823 4.02785 8.9661 4.43738 9.32228C4.51165 9.61493 4.72212 10.29 4.82453 10.5965C4.96176 11.0068 5.12499 11.3559 5.28957 11.736C5.05445 12.7107 4.28365 13.3993 3.27095 13.3993V13.3993ZM6.11858 9.35653C6.06998 9.2791 6.08015 9.32669 6.02578 9.25356C5.81157 8.67085 5.39876 7.37025 5.35095 5.89297C5.29692 4.22183 5.57544 2.26301 6.39654 2.26301C6.95291 2.26301 7.5442 6.23287 6.11847 9.35653H6.11858ZM22.5724 7.61531C22.4406 6.62364 22.4337 2.20276 23.495 2.3245C24.081 2.56188 23.1234 6.73351 22.5724 7.61531ZM30.3221 7.61531C30.1903 6.62364 30.1834 2.20276 31.2447 2.3245C31.8307 2.56188 30.8731 6.73351 30.3221 7.61531ZM38.0103 7.67692C37.8784 6.68513 37.8716 2.26425 38.9328 2.38599C39.5188 2.62337 38.5612 6.79511 38.0103 7.67692ZM46.498 2.06576C47.4683 1.96515 47.4283 6.20246 45.4807 8.87759C45.2295 7.91068 44.8444 2.39775 46.498 2.06564V2.06576ZM50.5764 11.1836C50.2647 9.60928 51.07 8.57533 51.9002 8.46196C52.1903 8.41561 52.6108 8.60359 52.6947 8.95502C52.8326 9.61731 52.6747 10.5997 50.8167 11.8462C50.8194 11.8568 50.6459 11.5342 50.5765 11.1836H50.5764Z" fill="#E74D89"/>
</svg>
