<svg width="23" height="24" viewBox="0 0 23 24" fill="none" xmlns="http://www.w3.org/2000/svg">
<path d="M19.5971 19.8013H16.1892V14.4643C16.1892 13.1916 16.1665 11.5533 14.4168 11.5533C12.6418 11.5533 12.3702 12.94 12.3702 14.3716V19.8009H8.96245V8.82595H12.2339V10.3258H12.2798C12.6072 9.76598 13.0803 9.30545 13.6487 8.99325C14.2171 8.68105 14.8596 8.52887 15.5077 8.55291C18.9617 8.55291 19.5985 10.8249 19.5985 13.7806L19.5971 19.8013V19.8013ZM5.11714 7.32583C4.02491 7.32601 3.13932 6.44069 3.13914 5.34846C3.13896 4.25623 4.02419 3.37064 5.11642 3.37046C6.20865 3.37019 7.09424 4.25551 7.09442 5.34774C7.09452 5.87225 6.88625 6.37532 6.51544 6.74628C6.14463 7.11724 5.64165 7.32571 5.11714 7.32583M6.82112 19.8013H3.40966V8.82595H6.82103V19.8013L6.82112 19.8013ZM21.296 0.205531H1.69724C0.770949 0.19511 0.0113203 0.937129 0 1.86342V21.544C0.0109609 22.4707 0.7705 23.2134 1.69715 23.2037H21.296C22.2246 23.2152 22.9872 22.4725 23 21.544V1.86189C22.9868 0.933805 22.2242 0.191875 21.296 0.204004" fill="#0A66C2"/>
</svg>
